<?xml version="1.0" standalone="no"?>
<!DOCTYPE svg PUBLIC "-//W3C//DTD SVG 20010904//EN"
 "http://www.w3.org/TR/2001/REC-SVG-20010904/DTD/svg10.dtd">
<svg version="1.0" xmlns="http://www.w3.org/2000/svg"
 width="940.000000pt" height="788.000000pt" viewBox="0 0 940.000000 788.000000"
 preserveAspectRatio="xMidYMid meet">

<g transform="translate(0.000000,788.000000) scale(0.100000,-0.100000)"
fill="#000000" stroke="none">
<path d="M4105 7208 c-499 -36 -1043 -146 -1550 -314 -297 -98 -775 -301 -775
-328 0 -7 133 -176 295 -378 l296 -366 172 -60 c95 -33 251 -88 347 -122 291
-102 612 -178 930 -219 239 -31 402 -41 680 -41 278 0 441 10 680 41 290 38
610 110 870 196 271 91 592 230 635 276 64 69 540 660 540 671 0 30 -480 235
-795 340 -494 164 -1010 267 -1540 306 -159 12 -614 11 -785 -2z m607 -318
c284 -13 520 -40 793 -91 137 -25 488 -109 482 -116 -3 -2 -87 -15 -188 -29
-374 -51 -756 -122 -1203 -225 -303 -70 -394 -85 -616 -99 -339 -22 -797 23
-1247 124 -204 46 -237 56 -227 66 13 12 359 124 509 165 444 120 930 195
1345 208 47 2 99 4 115 5 17 1 123 -3 237 -8z"/>
<path d="M6455 5408 c-546 -224 -1155 -341 -1840 -355 -757 -15 -1462 105
-2069 353 -59 25 -116 42 -126 39 -24 -8 -393 -384 -514 -525 -321 -374 -533
-675 -729 -1034 -178 -326 -291 -630 -354 -955 -23 -120 -26 -162 -27 -351 -1
-190 2 -228 22 -324 62 -287 176 -505 372 -709 257 -269 555 -443 1024 -599
346 -115 747 -196 1196 -242 356 -37 466 -41 1110 -41 682 0 823 7 1215 56
827 104 1437 310 1859 628 195 147 383 371 478 569 103 217 141 395 141 662 1
356 -76 667 -268 1090 -248 547 -744 1209 -1267 1692 l-103 95 -120 -49z
m-1735 -1012 l0 -93 88 -6 c228 -16 452 -121 600 -282 72 -78 142 -207 142
-259 0 -164 -227 -247 -365 -134 -20 17 -49 55 -65 87 -28 55 -98 131 -153
165 -42 26 -128 53 -191 61 l-56 7 0 -364 0 -365 103 -12 c161 -18 275 -56
411 -135 87 -51 209 -173 259 -257 122 -207 122 -456 0 -657 -137 -226 -401
-379 -689 -399 l-84 -6 0 -88 0 -89 -215 0 -214 0 -3 88 -3 87 -80 7 c-288 24
-542 165 -680 378 -62 96 -82 157 -67 208 17 55 53 96 108 122 37 18 58 21
119 18 98 -5 145 -36 194 -128 42 -79 112 -149 184 -184 56 -28 191 -60 214
-52 10 4 13 73 13 365 l0 359 -67 7 c-344 33 -616 199 -738 450 -222 458 137
955 725 1004 l75 6 3 93 3 92 214 0 215 0 0 -94z"/>
<path d="M4168 3924 c-245 -59 -375 -280 -284 -481 32 -69 106 -147 174 -182
52 -27 145 -51 194 -51 l38 0 0 365 0 365 -32 -1 c-18 0 -59 -7 -90 -15z"/>
<path d="M4720 2474 l0 -365 48 6 c162 23 282 98 347 217 40 73 46 179 15 261
-49 130 -225 246 -372 247 l-38 0 0 -366z"/>
</g>
</svg>
