<?xml version="1.0" standalone="no"?>
<!DOCTYPE svg PUBLIC "-//W3C//DTD SVG 20010904//EN"
 "http://www.w3.org/TR/2001/REC-SVG-20010904/DTD/svg10.dtd">
<svg version="1.0" xmlns="http://www.w3.org/2000/svg"
 width="940.000000pt" height="788.000000pt" viewBox="0 0 940.000000 788.000000"
 preserveAspectRatio="xMidYMid meet">

<g transform="translate(0.000000,788.000000) scale(0.100000,-0.100000)"
fill="#000000" stroke="none">
<path d="M3635 6046 c-17 -7 -45 -30 -63 -50 l-32 -37 0 -177 c0 -172 1 -179
24 -213 49 -72 27 -70 680 -67 573 3 585 3 612 24 65 48 69 61 72 238 4 187
-3 216 -64 262 l-37 29 -581 2 c-465 2 -587 0 -611 -11z"/>
<path d="M5080 5772 c-6 -2 -10 -44 -10 -96 0 -83 -3 -99 -31 -154 -35 -70
-71 -105 -149 -141 l-55 -25 -595 0 c-671 1 -658 -1 -745 76 -72 64 -98 124
-103 241 l-4 99 -157 -4 c-139 -3 -161 -6 -203 -27 -75 -37 -134 -95 -170
-169 l-33 -67 0 -1605 0 -1605 33 -67 c40 -81 110 -148 190 -180 l57 -23 1130
0 1130 0 67 32 c82 39 151 105 186 181 l27 57 0 1605 0 1605 -27 56 c-48 98
-136 171 -235 198 -38 10 -280 20 -303 13z m-1443 -828 c19 -19 24 -32 20 -53
-7 -31 -232 -400 -256 -418 -47 -36 -83 -10 -235 170 -72 85 -82 121 -46 157
40 40 72 27 151 -60 40 -44 76 -80 79 -80 4 0 45 62 91 137 46 75 93 145 103
155 28 25 62 22 93 -8z m1672 -178 c31 -28 28 -79 -5 -105 -26 -21 -35 -21
-595 -21 -346 0 -578 4 -593 10 -55 21 -59 100 -6 127 20 10 151 12 601 10
551 -2 578 -3 598 -21z m-1674 -811 c14 -13 25 -34 25 -47 0 -13 -56 -113
-124 -223 -168 -271 -166 -270 -329 -81 -116 136 -129 165 -85 206 42 39 69
27 148 -60 40 -44 75 -80 80 -80 4 0 42 57 85 128 43 70 89 139 103 155 32 34
65 35 97 2z m1674 -179 c25 -22 28 -73 7 -102 -14 -18 -34 -19 -604 -22 -585
-2 -589 -2 -615 18 -43 34 -34 90 18 119 14 7 190 10 596 8 552 -2 578 -3 598
-21z m-1674 -811 c14 -13 25 -34 25 -46 0 -21 -82 -161 -207 -356 -50 -79 -54
-83 -89 -83 -41 0 -56 13 -195 176 -76 90 -85 121 -47 161 39 41 65 31 148
-57 41 -44 78 -80 82 -80 3 0 43 61 89 135 107 178 141 204 194 150z m1674
-179 c27 -25 28 -79 1 -106 -20 -20 -33 -20 -607 -20 l-587 0 -23 22 c-23 21
-29 51 -17 83 17 43 39 45 640 42 547 -2 573 -3 593 -21z"/>
<path d="M5903 5628 c-12 -15 -54 -161 -47 -167 6 -6 114 -4 121 3 9 9 -40
169 -53 173 -6 2 -16 -2 -21 -9z"/>
<path d="M5842 5293 c-5 -10 -18 -49 -28 -88 -18 -67 -19 -130 -19 -1585 0
-1452 1 -1516 18 -1542 10 -15 38 -34 62 -44 52 -19 98 -9 136 32 l24 26 3
1516 c3 1375 1 1524 -14 1587 -25 107 -32 115 -109 115 -51 0 -66 -4 -73 -17z"/>
</g>
</svg>
