<?xml version="1.0" standalone="no"?>
<!DOCTYPE svg PUBLIC "-//W3C//DTD SVG 20010904//EN"
 "http://www.w3.org/TR/2001/REC-SVG-20010904/DTD/svg10.dtd">
<svg version="1.0" xmlns="http://www.w3.org/2000/svg"
 width="940.000000pt" height="788.000000pt" viewBox="0 0 940.000000 788.000000"
 preserveAspectRatio="xMidYMid meet">

<g transform="translate(0.000000,788.000000) scale(0.100000,-0.100000)"
fill="#000000" stroke="none">
<path d="M3403 6444 c-17 -7 -44 -30 -60 -50 -26 -35 -28 -45 -33 -158 l-5
-121 -320 -6 c-301 -5 -323 -7 -375 -28 -144 -59 -250 -172 -304 -326 -21 -60
-21 -66 -24 -1669 l-2 -1609 21 -86 c12 -47 33 -106 47 -130 32 -55 139 -171
158 -171 8 0 14 -4 14 -8 0 -16 95 -54 168 -68 112 -21 2182 -21 2182 1 0 8
-9 36 -19 63 -11 27 -27 85 -37 128 -9 44 -19 89 -21 101 l-5 23 -1014 0
c-1005 0 -1015 0 -1058 21 -27 12 -55 36 -73 62 l-28 42 -3 1256 c-2 1056 0
1258 11 1268 11 8 499 10 1898 9 l1884 -3 5 -490 5 -489 80 -13 c44 -7 89 -17
100 -22 21 -10 99 -31 125 -34 13 -2 15 101 18 861 2 833 1 866 -18 944 -11
43 -29 92 -40 108 -11 15 -20 30 -20 33 0 6 -48 63 -70 84 -68 65 -167 117
-250 133 -29 6 -122 10 -206 10 l-154 0 0 -154 0 -154 148 -4 c156 -4 184 -11
229 -60 47 -49 53 -85 53 -288 l0 -190 -1901 0 -1901 0 4 204 3 204 30 43 c58
82 64 84 368 87 183 2 272 0 281 -7 8 -6 16 -27 19 -46 24 -145 238 -178 303
-47 17 33 19 68 22 331 2 195 -1 298 -8 305 -5 5 -10 17 -10 26 0 20 -55 72
-93 88 -36 15 -84 14 -124 -4z"/>
<path d="M5476 6437 c-68 -39 -80 -64 -84 -180 -1 -56 -5 -112 -8 -124 l-4
-23 -728 -2 -727 -3 -3 -152 -4 -153 728 -2 c634 -3 728 -5 735 -18 4 -8 14
-35 21 -60 10 -33 23 -51 53 -72 60 -42 104 -46 169 -14 90 44 91 47 91 401 0
284 -1 302 -20 335 -49 83 -142 111 -219 67z"/>
<path d="M3064 4340 c-12 -5 -31 -22 -43 -39 -21 -30 -22 -38 -19 -247 l3
-216 33 -29 32 -29 301 0 c326 0 343 3 367 55 16 35 17 424 1 459 -24 52 -51
56 -366 55 -158 0 -298 -4 -309 -9z"/>
<path d="M4193 4334 c-54 -27 -64 -69 -63 -273 1 -153 4 -181 21 -217 12 -26
31 -46 47 -53 20 -8 119 -11 330 -9 l302 3 27 28 28 27 3 198 c4 226 -2 263
-51 292 -30 19 -52 20 -322 20 -243 0 -295 -3 -322 -16z"/>
<path d="M5324 4331 c-17 -11 -36 -34 -43 -52 -14 -41 -15 -370 -1 -421 22
-80 118 -105 196 -51 57 39 208 107 294 132 41 12 89 26 105 31 17 5 50 12 75
16 81 12 80 10 80 145 0 130 -9 161 -56 198 -26 20 -38 21 -323 21 -273 0
-298 -2 -327 -19z"/>
<path d="M6120 3807 c-3 -2 -27 -7 -55 -11 -193 -23 -422 -116 -583 -235 -76
-56 -232 -206 -232 -223 0 -4 -8 -16 -17 -26 -80 -79 -187 -310 -226 -487 -33
-150 -40 -271 -22 -406 37 -287 120 -477 302 -694 66 -79 209 -198 296 -247
32 -18 64 -38 70 -43 7 -6 49 -25 95 -43 304 -119 609 -126 917 -20 293 101
586 370 704 648 24 55 30 107 17 147 -10 32 -85 67 -127 59 -47 -8 -65 -30
-144 -170 -54 -95 -85 -137 -159 -211 -100 -101 -166 -149 -296 -212 -138 -67
-213 -84 -387 -90 -167 -6 -238 3 -360 43 -301 102 -542 342 -642 642 -44 131
-54 214 -48 372 7 157 33 265 94 388 58 116 110 189 193 272 172 173 334 257
566 294 130 21 183 20 324 -4 231 -38 407 -133 573 -310 102 -107 192 -250
170 -270 -4 -5 -45 -20 -91 -35 -46 -15 -80 -31 -75 -36 4 -4 49 -34 98 -66
50 -32 108 -70 130 -86 22 -15 75 -50 118 -77 l78 -50 19 45 c10 24 26 65 35
92 9 26 33 90 54 143 55 137 73 189 69 199 -2 4 -41 -4 -88 -20 -47 -16 -90
-27 -96 -25 -6 2 -21 26 -33 53 -13 26 -52 91 -87 144 -73 111 -232 269 -346
345 -106 71 -277 155 -338 167 -14 2 -52 12 -85 22 -57 16 -373 34 -385 22z"/>
<path d="M3065 3321 c-11 -5 -29 -19 -40 -31 -18 -20 -20 -39 -23 -230 -3
-231 2 -256 58 -285 44 -23 587 -22 635 1 52 24 56 47 53 283 l-3 213 -33 29
-32 29 -298 -1 c-163 0 -306 -4 -317 -8z"/>
<path d="M4192 3315 c-53 -29 -57 -46 -60 -249 -3 -156 -1 -196 13 -232 27
-71 40 -74 359 -74 l276 0 4 23 c3 12 13 57 22 101 9 43 32 121 50 174 37 103
42 154 20 205 -27 66 -32 67 -363 66 -222 -1 -304 -4 -321 -14z"/>
<path d="M6193 3298 c-36 -17 -51 -65 -57 -188 -4 -63 -12 -180 -18 -260 l-11
-145 -39 -43 c-48 -53 -59 -82 -60 -157 0 -74 11 -102 58 -155 53 -58 100 -80
174 -80 l62 0 131 -107 c73 -58 137 -111 142 -118 16 -18 69 -33 99 -28 34 7
76 57 76 92 0 41 -52 110 -210 280 -51 55 -68 82 -63 100 10 41 -17 118 -61
169 l-43 50 -11 148 c-7 82 -15 203 -18 270 -5 90 -11 125 -23 141 -34 41 -82
53 -128 31z"/>
</g>
</svg>
