<?xml version="1.0" standalone="no"?>
<!DOCTYPE svg PUBLIC "-//W3C//DTD SVG 20010904//EN"
 "http://www.w3.org/TR/2001/REC-SVG-20010904/DTD/svg10.dtd">
<svg version="1.0" xmlns="http://www.w3.org/2000/svg"
 width="940.000000pt" height="788.000000pt" viewBox="0 0 940.000000 788.000000"
 preserveAspectRatio="xMidYMid meet">

<g transform="translate(0.000000,788.000000) scale(0.100000,-0.100000)"
fill="#000000" stroke="none">
<path d="M3930 6155 c-9 -10 -11 -42 -8 -103 3 -71 10 -100 32 -145 34 -71
110 -139 183 -167 54 -20 69 -21 557 -18 l501 3 53 28 c114 60 177 158 189
292 5 60 3 79 -11 100 l-16 25 -734 0 c-640 0 -735 -2 -746 -15z"/>
<path d="M3320 5980 c-13 -8 -15 -239 -15 -1980 0 -1940 0 -1972 19 -1986 16
-11 83 -14 368 -14 385 0 363 -4 334 65 l-15 35 -305 0 -306 0 0 1900 0 1900
211 0 210 0 -7 23 c-23 74 3 67 -251 67 -126 0 -235 -5 -243 -10z"/>
<path d="M5549 5945 l-17 -45 209 0 209 0 0 -1900 0 -1900 -305 0 -306 0 -18
-42 c-10 -24 -17 -46 -14 -50 2 -5 161 -8 354 -8 336 0 350 1 369 20 20 20 20
33 20 1979 0 1768 -2 1961 -16 1975 -13 14 -49 16 -242 16 l-227 0 -16 -45z"/>
<path d="M3867 5433 c-4 -3 -7 -100 -7 -215 l0 -208 815 0 815 0 -2 213 -3
212 -806 3 c-443 1 -809 -1 -812 -5z"/>
<path d="M4465 4848 c-3 -7 -6 -62 -7 -123 l-3 -110 -120 -3 c-66 -1 -124 -7
-129 -12 -8 -8 85 -72 355 -243 58 -37 109 -67 114 -67 5 0 56 30 114 67 270
171 363 235 355 243 -5 5 -63 11 -129 12 l-120 3 -5 120 -5 120 -208 3 c-161
2 -209 0 -212 -10z"/>
<path d="M3864 4127 c-2 -7 -3 -102 -2 -212 l3 -200 813 -3 812 -2 -2 212 -3
213 -808 3 c-650 2 -809 0 -813 -11z"/>
<path d="M4465 3548 c-3 -7 -6 -62 -7 -123 l-3 -110 -128 -3 c-96 -2 -127 -6
-124 -15 4 -13 456 -307 472 -307 17 0 468 295 467 305 -1 6 -55 12 -124 15
l-123 5 -5 120 -5 120 -208 3 c-161 2 -209 0 -212 -10z"/>
<path d="M4595 2833 c-346 -46 -568 -401 -461 -739 110 -347 518 -499 839
-311 99 58 198 181 239 295 25 71 35 235 19 312 -12 60 -55 160 -68 160 -4 0
-19 -16 -32 -35 l-24 -35 23 -77 c66 -222 -37 -455 -245 -559 -136 -68 -284
-68 -420 0 -167 83 -265 240 -265 425 0 350 373 583 684 428 l40 -19 28 33
c27 34 27 34 7 51 -62 52 -241 87 -364 71z"/>
<path d="M4846 2449 c-115 -160 -212 -292 -216 -294 -3 -2 -55 35 -115 81
l-109 84 -22 -27 c-48 -59 -50 -69 -18 -96 45 -38 283 -217 288 -217 8 0 496
678 496 688 0 10 -79 73 -89 71 -4 0 -100 -131 -215 -290z"/>
</g>
</svg>
